HIERARCHY
ROOT hip
{
  OFFSET 0 0 0
  CHANNELS 6 Xposition Yposition Zposition Zrotation Yrotation Xrotation
  JOINT abdomen
  {
    OFFSET 0 20.6881 -0.73152
    CHANNELS 3 Zrotation Xrotation Yrotation
    JOINT chest
    {
      OFFSET 0 11.7043 -0.48768
      CHANNELS 3 Zrotation Xrotation Yrotation
      JOINT neck
      {
        OFFSET 0 22.1894 -2.19456
        CHANNELS 3 Zrotation Xrotation Yrotation
        JOINT head
        {
          OFFSET -0.24384 7.07133 1.2192
          CHANNELS 3 Zrotation Xrotation Yrotation
          JOINT leftEye
          {
            OFFSET 4.14528 8.04674 8.04672
            CHANNELS 3 Zrotation Xrotation Yrotation
            End Site
            {
              OFFSET 1 0 0
            }
          }
          JOINT rightEye
          {
            OFFSET -3.6576 8.04674 8.04672
            CHANNELS 3 Zrotation Xrotation Yrotation
            End Site
            {
              OFFSET 1 0 0
            }
          }
        }
      }
      JOINT rCollar
      {
        OFFSET -2.68224 19.2634 -4.8768
        CHANNELS 3 Zrotation Xrotation Yrotation
        JOINT rShldr
        {
          OFFSET -8.77824 -1.95073 1.46304
          CHANNELS 3 Zrotation Xrotation Yrotation
          JOINT rForeArm
          {
            OFFSET -28.1742 -1.7115 0.48768
            CHANNELS 3 Zrotation Xrotation Yrotation
            JOINT rHand
            {
              OFFSET -22.5879 0.773209 7.07136
              CHANNELS 3 Zrotation Xrotation Yrotation
              JOINT rThumb1
              {
                OFFSET -1.2192 -0.487915 3.41376
                CHANNELS 3 Zrotation Xrotation Yrotation
                JOINT rThumb2
                {
                  OFFSET -3.37035 -0.52449 3.41376
                  CHANNELS 3 Zrotation Xrotation Yrotation
                  End Site
                  {
                    OFFSET -1.78271 -1.18214 1.43049
                  }
                }
              }
              JOINT rIndex1
              {
                OFFSET -7.75947 0.938293 5.60832
                CHANNELS 3 Zrotation Xrotation Yrotation
                JOINT rIndex2
                {
                  OFFSET -2.54057 -0.884171 1.56538
                  CHANNELS 3 Zrotation Xrotation Yrotation
                  End Site
                  {
                    OFFSET -1.62519 -0.234802 1.16502
                  }
                }
              }
              JOINT rMid1
              {
                OFFSET -8.24714 1.18213 3.41376
                CHANNELS 3 Zrotation Xrotation Yrotation
                JOINT rMid2
                {
                  OFFSET -3.10165 -0.590103 1.0647
                  CHANNELS 3 Zrotation Xrotation Yrotation
                  End Site
                  {
                    OFFSET -2.48547 -0.328903 0.83742
                  }
                }
              }
              JOINT rRing1
              {
                OFFSET -8.82822 0.546677 1.51678
                CHANNELS 3 Zrotation Xrotation Yrotation
                JOINT rRing2
                {
                  OFFSET -2.60934 -0.819778 -0.0198488
                  CHANNELS 3 Zrotation Xrotation Yrotation
                  End Site
                  {
                    OFFSET -2.33842 -0.294052 0.168128
                  }
                }
              }
              JOINT rPinky1
              {
                OFFSET -8.27202 -0.0477905 -0.4584
                CHANNELS 3 Zrotation Xrotation Yrotation
                JOINT rPinky2
                {
                  OFFSET -1.82734 -0.647385 -0.700984
                  CHANNELS 3 Zrotation Xrotation Yrotation
                  End Site
                  {
                    OFFSET -1.69225 -0.51767 -0.607171
                  }
                }
              }
            }
          }
        }
      }
      JOINT lCollar
      {
        OFFSET 2.68224 19.2634 -4.8768
        CHANNELS 3 Zrotation Xrotation Yrotation
        JOINT lShldr
        {
          OFFSET 8.77824 -1.95073 1.46304
          CHANNELS 3 Zrotation Xrotation Yrotation
          JOINT lForeArm
          {
            OFFSET 28.1742 -1.7115 0.48768
            CHANNELS 3 Zrotation Xrotation Yrotation
            JOINT lHand
            {
              OFFSET 22.5879 0.773209 7.07136
              CHANNELS 3 Zrotation Xrotation Yrotation
              JOINT lThumb1
              {
                OFFSET 1.2192 -0.487915 3.41376
                CHANNELS 3 Zrotation Xrotation Yrotation
                JOINT lThumb2
                {
                  OFFSET 3.37035 -0.52449 3.41376
                  CHANNELS 3 Zrotation Xrotation Yrotation
                  End Site
                  {
                    OFFSET 1.78271 -1.18214 1.43049
                  }
                }
              }
              JOINT lIndex1
              {
                OFFSET 7.75947 0.938293 5.60832
                CHANNELS 3 Zrotation Xrotation Yrotation
                JOINT lIndex2
                {
                  OFFSET 2.54057 -0.884171 1.56538
                  CHANNELS 3 Zrotation Xrotation Yrotation
                  End Site
                  {
                    OFFSET 1.62519 -0.234802 1.16502
                  }
                }
              }
              JOINT lMid1
              {
                OFFSET 8.24714 1.18213 3.41376
                CHANNELS 3 Zrotation Xrotation Yrotation
                JOINT lMid2
                {
                  OFFSET 3.10165 -0.590103 1.0647
                  CHANNELS 3 Zrotation Xrotation Yrotation
                  End Site
                  {
                    OFFSET 2.48547 -0.328903 0.83742
                  }
                }
              }
              JOINT lRing1
              {
                OFFSET 8.82822 0.546677 1.51678
                CHANNELS 3 Zrotation Xrotation Yrotation
                JOINT lRing2
                {
                  OFFSET 2.60934 -0.819778 -0.0198488
                  CHANNELS 3 Zrotation Xrotation Yrotation
                  End Site
                  {
                    OFFSET 2.33842 -0.294052 0.168128
                  }
                }
              }
              JOINT lPinky1
              {
                OFFSET 8.27202 -0.0477905 -0.4584
                CHANNELS 3 Zrotation Xrotation Yrotation
                JOINT lPinky2
                {
                  OFFSET 1.82734 -0.647385 -0.700984
                  CHANNELS 3 Zrotation Xrotation Yrotation
                  End Site
                  {
                    OFFSET 1.69225 -0.51767 -0.607171
                  }
                }
              }
            }
          }
        }
      }
    }
  }
  JOINT rButtock
  {
    OFFSET -8.77824 4.35084 1.2192
    CHANNELS 3 Zrotation Xrotation Yrotation
    JOINT rThigh
    {
      OFFSET 0 -1.70687 -2.19456
      CHANNELS 3 Zrotation Xrotation Yrotation
      JOINT rShin
      {
        OFFSET 0 -36.8199 0.73152
        CHANNELS 3 Zrotation Xrotation Yrotation
        JOINT rFoot
        {
          OFFSET 0.73152 -45.1104 -5.12064
          CHANNELS 3 Zrotation Xrotation Yrotation
          End Site
          {
            OFFSET -1.1221 -3.69964 12.103
          }
        }
      }
    }
  }
  JOINT lButtock
  {
    OFFSET 8.77824 4.35084 1.2192
    CHANNELS 3 Zrotation Xrotation Yrotation
    JOINT lThigh
    {
      OFFSET 0 -1.70687 -2.19456
      CHANNELS 3 Zrotation Xrotation Yrotation
      JOINT lShin
      {
        OFFSET 0 -36.8199 0.73152
        CHANNELS 3 Zrotation Xrotation Yrotation
        JOINT lFoot
        {
          OFFSET -0.73152 -45.1104 -5.12064
          CHANNELS 3 Zrotation Xrotation Yrotation
          End Site
          {
            OFFSET 1.1221 -3.69964 12.103
          }
        }
      }
    }
  }
}
MOTION
Frames:	6
Frame Time:	0.00833333
51.3946 85.5269 255.858 0.0 0.0 0.0 2.34101 -0.00222423 0.0637215 0.646597 0.00594975 0.111938 3.90519e-14 0.0 -6.95746e-16 1.17556e-13 3.18055e-15 -2.09034e-15 -0.0 0.0 0.0 -0.0 0.0 0.0 1.98273e-14 -1.41323e-16 -1.98785e-16 4.14809e-13 -2.83889e-15 -5.56597e-15 7.11917e-12 -2.22202e-12 -2.13097e-13 8.14323e-11 1.60504e-12 -1.30085e-12 1.92093e-10 -1.33868e-12 -3.26961e-12 3.3172e-10 -2.31226e-12 -5.66695e-12 1.92096e-10 -1.33703e-12 -3.28233e-12 7.73091 5.47488 0.417314 1.92093e-10 -1.33822e-12 -3.27915e-12 2.90554 0.965183 0.102902 1.92099e-10 -1.33862e-12 -3.27836e-12 10.2786 0.731801 0.0259123 1.92089e-10 -1.33703e-12 -3.27279e-12 2.22167 -0.733487 -0.20892 1.97321e-14 -1.38606e-16 -4.96962e-16 4.10397e-13 -2.6339e-15 -6.75868e-15 7.11286e-12 2.0288e-12 -2.00375e-13 8.14105e-11 -2.64212e-12 -1.29131e-12 1.92045e-10 -1.33463e-12 -3.27915e-12 3.31674e-10 -2.3059e-12 -5.65423e-12 1.9204e-10 -1.33305e-12 -3.26961e-12 -7.73091 5.47488 -0.417314 1.92047e-10 -1.33534e-12 -3.27915e-12 -2.90554 0.965183 -0.102902 1.92035e-10 -1.33454e-12 -3.27438e-12 -10.2786 0.731801 -0.0259123 1.9205e-10 -1.33146e-12 -3.27597e-12 -2.22167 -0.733487 0.20892 -2.03217e-16 0.0 -3.88251e-19 2.21545 -8.02974 -0.231357 0.00607198 8.9737 0.152074 -0.477646 -0.951461 0.0348593 2.03217e-16 0.0 3.88251e-19 1.35202 -1.92788 -0.00535731 0.00846684 -2.07867 0.0694623 0.423903 3.99897 -0.127296
52.097 84.6138 242.937 -178.288 -2.6579 175.221 1.84264 1.31224 0.371601 0.676348 -2.38378 0.231554 -2.19827 1.54279 -0.651526 3.30602 -4.69674 -0.446739 -0.0 0.0 0.0 -0.0 0.0 0.0 6.80941e-15 -7.81858e-15 -4.82713e-15 21.151 14.8216 -2.13086 -5.06685 -2.50048 7.68692 0.198207 9.90437 1.31806 2.01365e-10 -2.25978e-10 1.70816e-10 3.53518e-10 -3.8621e-10 2.92987e-10 2.01368e-10 -2.25978e-10 1.70806e-10 7.73091 5.47488 0.417314 2.01365e-10 -2.25974e-10 1.70806e-10 2.90554 0.965183 0.102902 2.01372e-10 -2.25979e-10 1.70807e-10 10.2786 0.731801 0.0259123 2.0136e-10 -2.25973e-10 1.70811e-10 2.22167 -0.733487 -0.20892 6.70216e-15 -7.8159e-15 -5.0958e-15 -21.8176 12.2016 2.8176 4.44331 -2.06539 -6.88892 -0.0389808 4.38301 -0.609505 2.09623e-11 -1.70868e-10 -7.6515e-11 3.43884e-11 -2.95145e-10 -1.30636e-10 2.09584e-11 -1.70867e-10 -7.65038e-11 -7.73091 5.47488 -0.417314 2.09621e-11 -1.70871e-10 -7.65169e-11 -2.90554 0.965183 -0.102902 2.09533e-11 -1.70868e-10 -7.651e-11 -10.2786 0.731801 -0.0259123 2.09686e-11 -1.70866e-10 -7.65137e-11 -2.22167 -0.733487 0.20892 -2.03217e-16 0.0 -3.88251e-19 4.00342 -8.13279 5.29414 0.028302 15.4709 0.294137 -2.21195 -6.158 -9.01285 2.03217e-16 0.0 3.88251e-19 -1.07617 -3.17623 -7.15268 -0.0410844 6.05791 -0.139255 1.4019 -2.66848 6.05455
51.6894 84.6478 242.714 -180.213 -2.4502 175.16 1.2503 2.74987 0.684272 0.729238 -4.91275 0.356565 -4.49377 3.17213 -1.34066 6.72873 -9.65654 -0.924029 -0.0 0.0 0.0 -0.0 0.0 0.0 -6.97071e-15 -1.66615e-14 -9.87401e-15 44.8758 30.4137 -4.91367 -9.69815 -4.99187 15.8561 -0.11784 20.3724 2.85128 2.11455e-10 -4.65896e-10 3.56655e-10 3.77148e-10 -7.96223e-10 6.1182e-10 2.11459e-10 -4.65897e-10 3.56648e-10 7.73091 5.47488 0.417314 2.11455e-10 -4.65887e-10 3.56645e-10 2.90554 0.965183 0.102902 2.11463e-10 -4.65897e-10 3.56647e-10 10.2786 0.731801 0.0259123 2.1145e-10 -4.65888e-10 3.56649e-10 2.22167 -0.733487 -0.20892 -7.09378e-15 -1.66589e-14 -1.01101e-14 -46.311 24.9961 6.25321 8.60137 -4.14682 -14.195 0.022312 9.00317 -1.26418 -1.62584e-10 -3.59574e-10 -1.61067e-10 -2.84645e-10 -6.21175e-10 -2.75058e-10 -1.62587e-10 -3.59574e-10 -1.61055e-10 -7.73091 5.47488 -0.417314 -1.62586e-10 -3.5958e-10 -1.61071e-10 -2.90554 0.965183 -0.102902 -1.62592e-10 -3.59576e-10 -1.61062e-10 -10.2786 0.731801 -0.0259123 -1.62577e-10 -3.59574e-10 -1.61068e-10 -2.22167 -0.733487 0.20892 -2.03217e-16 0.0 -3.88251e-19 5.87576 -8.11274 11.1235 0.0134196 22.3629 0.459857 -5.8404 -11.2025 -18.8486 2.03217e-16 0.0 3.88251e-19 -4.03992 -4.32997 -14.7407 -0.0272573 14.6434 -0.369854 4.00737 -9.50718 12.7679
51.5538 84.6828 242.718 -180.958 -2.206 175.585 0.803419 3.94068 0.989407 0.766024 -7.16306 0.473883 -6.48928 4.62598 -1.96026 9.69257 -14.0867 -1.37714 -0.0 0.0 0.0 -0.0 0.0 0.0 -1.92263e-14 -2.31731e-14 -1.40838e-14 67.8546 44.1681 -8.63128 -13.2357 -6.96253 23.2198 -0.945989 29.6453 4.48304 2.19909e-10 -6.75257e-10 5.18986e-10 3.97116e-10 -1.15401e-09 8.90295e-10 2.19912e-10 -6.75259e-10 5.18982e-10 7.73091 5.47488 0.417314 2.19908e-10 -6.75245e-10 5.18976e-10 2.90554 0.965183 0.102902 2.19917e-10 -6.75259e-10 5.18979e-10 10.2786 0.731801 0.0259123 2.19904e-10 -6.75246e-10 5.1898e-10 2.22167 -0.733487 -0.20892 -1.93578e-14 -2.31705e-14 -1.42935e-14 -69.7667 36.2066 10.2582 11.8694 -5.83863 -20.7659 0.169166 13.143 -1.87223 -3.21203e-10 -5.09934e-10 -2.22987e-10 -5.60182e-10 -8.80822e-10 -3.80599e-10 -3.21205e-10 -5.09934e-10 -2.22972e-10 -7.73091 5.47488 -0.417314 -3.21207e-10 -5.09941e-10 -2.22992e-10 -2.90554 0.965183 -0.102902 -3.21211e-10 -5.09936e-10 -2.22981e-10 -10.2786 0.731801 -0.0259123 -3.21194e-10 -5.09934e-10 -2.22989e-10 -2.22167 -0.733487 0.20892 -2.03217e-16 0.0 -3.88251e-19 7.62986 -8.10521 16.3482 -0.0374948 28.4643 0.625646 -10.547 -14.9304 -27.9735 2.03217e-16 0.0 3.88251e-19 -6.84238 -5.34952 -21.5125 0.0484318 22.33 -0.599201 7.71441 -15.2076 19.0908
51.6576 84.7392 242.912 -181.055 -1.3997 176.598 0.750236 4.51484 1.27361 0.742054 -8.71685 0.569259 -7.80899 5.64338 -2.40064 11.6659 -17.196 -1.73583 -0.0 0.0 0.0 -0.0 0.0 0.0 -2.76707e-14 -2.38561e-14 -1.6201e-14 85.7281 53.5846 -12.7733 -15.4015 -8.1428 28.419 -1.90504 35.9946 5.85946 2.2427e-10 -8.08227e-10 6.22549e-10 4.0793e-10 -1.38122e-09 1.06787e-09 2.24274e-10 -8.08228e-10 6.22546e-10 7.73091 5.47488 0.417314 2.24269e-10 -8.08213e-10 6.2254e-10 2.90554 0.965183 0.102902 2.24278e-10 -8.08229e-10 6.22543e-10 10.2786 0.731801 0.0259123 2.24265e-10 -8.08214e-10 6.22543e-10 2.22167 -0.733487 -0.20892 -2.7792e-14 -2.38536e-14 -1.63997e-14 -87.3989 43.8243 14.0249 13.9259 -6.89477 -25.4051 0.328326 16.0876 -2.32296 -4.17502e-10 -5.64424e-10 -2.28322e-10 -7.26978e-10 -9.74509e-10 -3.88938e-10 -4.17505e-10 -5.64425e-10 -2.28307e-10 -7.73091 5.47488 -0.417314 -4.17507e-10 -5.64433e-10 -2.28329e-10 -2.90554 0.965183 -0.102902 -4.17509e-10 -5.64428e-10 -2.28317e-10 -10.2786 0.731801 -0.0259123 -4.17493e-10 -5.64426e-10 -2.28326e-10 -2.22167 -0.733487 0.20892 -2.03217e-16 0.0 -3.88251e-19 9.10254 -8.28358 20.0673 -0.0943546 32.5896 0.750255 -14.5333 -16.924 -34.5115 2.03217e-16 0.0 3.88251e-19 -8.6903 -6.29222 -26.2018 0.143664 27.7708 -0.78361 11.069 -18.8625 23.7175
51.9694 84.8146 243.295 -180.431 -0.43 178.133 1.34736 4.14412 1.54253 0.609365 -9.28371 0.634384 -8.20807 6.04739 -2.58723 12.3254 -18.4652 -1.9396 -0.0 0.0 0.0 -0.0 0.0 0.0 -3.19813e-14 -1.39192e-14 -1.53779e-14 93.5159 57.2471 -15.07 -16.2069 -8.57061 30.514 -2.36004 38.29 6.43536 2.3982e-10 -8.64971e-10 6.69779e-10 4.35817e-10 -1.47792e-09 1.14846e-09 2.39823e-10 -8.6497e-10 6.69773e-10 7.73091 5.47488 0.417314 2.39818e-10 -8.64958e-10 6.6977e-10 2.90554 0.965183 0.102902 2.39825e-10 -8.64971e-10 6.69774e-10 10.2786 0.731801 0.0259123 2.39814e-10 -8.64959e-10 6.69775e-10 2.22167 -0.733487 -0.20892 -3.20574e-14 -1.39167e-14 -1.55898e-14 -94.6586 46.7913 15.8427 14.7161 -7.30057 -27.3032 0.409932 17.3648 -2.52395 -4.37162e-10 -4.59217e-10 -1.22891e-10 -7.59449e-10 -7.91282e-10 -2.06445e-10 -4.37167e-10 -4.59217e-10 -1.22874e-10 -7.73091 5.47488 -0.417314 -4.37167e-10 -4.59225e-10 -1.22897e-10 -2.90554 0.965183 -0.102902 -4.3717e-10 -4.5922e-10 -1.22885e-10 -10.2786 0.731801 -0.0259123 -4.37154e-10 -4.59218e-10 -1.22893e-10 -2.22167 -0.733487 0.20892 -2.03217e-16 0.0 -3.88251e-19 10.2668 -8.8624 21.7075 -0.113255 33.9109 0.78712 -16.1333 -17.56 -37.0224 2.03217e-16 0.0 3.88251e-19 -8.89053 -7.40027 -27.9455 0.194933 30.0939 -0.869932 12.5064 -20.2621 25.4314
